<mxfile host="app.diagrams.net" modified="2023-12-12T11:19:16.176Z" agent="Mozilla/5.0 (Windows NT 10.0; Win64; x64) AppleWebKit/537.36 (KHTML, like Gecko) Chrome/118.0.0.0 Safari/537.36 OPR/104.0.0.0" etag="Q-XfNfGpEhYu9-EmqgIi" version="22.1.7" type="device">
  <diagram name="Страница 1" id="YW91PB4rHEMt5rg3uFnZ">
    <mxGraphModel dx="1784" dy="830" grid="1" gridSize="10" guides="1" tooltips="1" connect="1" arrows="1" fold="1" page="1" pageScale="1" pageWidth="827" pageHeight="1169" math="0" shadow="0">
      <root>
        <mxCell id="0" />
        <mxCell id="1" parent="0" />
        <mxCell id="OutAfpcfDgZdODAjWb3x-112" style="edgeStyle=orthogonalEdgeStyle;rounded=0;orthogonalLoop=1;jettySize=auto;html=1;entryX=0.5;entryY=0;entryDx=0;entryDy=0;" edge="1" parent="1" source="c2hw_XhxiZxsvKRolTbk-1" target="c2hw_XhxiZxsvKRolTbk-3">
          <mxGeometry relative="1" as="geometry" />
        </mxCell>
        <mxCell id="c2hw_XhxiZxsvKRolTbk-1" value="" style="ellipse;whiteSpace=wrap;html=1;rounded=0;shadow=0;comic=0;labelBackgroundColor=none;strokeWidth=1;fillColor=#000000;fontFamily=Verdana;fontSize=12;align=center;" parent="1" vertex="1">
          <mxGeometry x="380" y="28" width="40" height="40" as="geometry" />
        </mxCell>
        <mxCell id="OutAfpcfDgZdODAjWb3x-117" style="edgeStyle=orthogonalEdgeStyle;rounded=0;orthogonalLoop=1;jettySize=auto;html=1;entryX=0.5;entryY=0;entryDx=0;entryDy=0;" edge="1" parent="1" source="c2hw_XhxiZxsvKRolTbk-3" target="OutAfpcfDgZdODAjWb3x-116">
          <mxGeometry relative="1" as="geometry" />
        </mxCell>
        <mxCell id="c2hw_XhxiZxsvKRolTbk-3" value="EPS := 1e-10" style="rounded=1;whiteSpace=wrap;html=1;arcSize=50;" parent="1" vertex="1">
          <mxGeometry x="350" y="90" width="100" height="30" as="geometry" />
        </mxCell>
        <mxCell id="c2hw_XhxiZxsvKRolTbk-35" value="" style="ellipse;html=1;shape=endState;fillColor=#000000;strokeColor=#000000;" parent="1" vertex="1">
          <mxGeometry x="385" y="680" width="30" height="30" as="geometry" />
        </mxCell>
        <mxCell id="OutAfpcfDgZdODAjWb3x-114" value="точность вычислений" style="shape=note;whiteSpace=wrap;html=1;backgroundOutline=1;darkOpacity=0.05;" vertex="1" parent="1">
          <mxGeometry x="480" y="90" width="190" height="30" as="geometry" />
        </mxCell>
        <mxCell id="OutAfpcfDgZdODAjWb3x-115" value="" style="endArrow=none;dashed=1;html=1;rounded=0;exitX=1;exitY=0.5;exitDx=0;exitDy=0;entryX=0;entryY=0.5;entryDx=0;entryDy=0;entryPerimeter=0;" edge="1" parent="1" source="c2hw_XhxiZxsvKRolTbk-3" target="OutAfpcfDgZdODAjWb3x-114">
          <mxGeometry width="50" height="50" relative="1" as="geometry">
            <mxPoint x="430" y="160" as="sourcePoint" />
            <mxPoint x="480" y="110" as="targetPoint" />
          </mxGeometry>
        </mxCell>
        <mxCell id="OutAfpcfDgZdODAjWb3x-123" style="edgeStyle=orthogonalEdgeStyle;rounded=0;orthogonalLoop=1;jettySize=auto;html=1;entryX=0.5;entryY=0;entryDx=0;entryDy=0;" edge="1" parent="1" source="OutAfpcfDgZdODAjWb3x-116" target="OutAfpcfDgZdODAjWb3x-118">
          <mxGeometry relative="1" as="geometry" />
        </mxCell>
        <mxCell id="OutAfpcfDgZdODAjWb3x-116" value="Ввод x" style="rounded=1;whiteSpace=wrap;html=1;arcSize=50;" vertex="1" parent="1">
          <mxGeometry x="350" y="140" width="100" height="30" as="geometry" />
        </mxCell>
        <mxCell id="OutAfpcfDgZdODAjWb3x-118" value="" style="rhombus;whiteSpace=wrap;html=1;" vertex="1" parent="1">
          <mxGeometry x="380" y="190" width="40" height="40" as="geometry" />
        </mxCell>
        <mxCell id="OutAfpcfDgZdODAjWb3x-119" value="" style="endArrow=none;html=1;rounded=0;exitX=1;exitY=0.5;exitDx=0;exitDy=0;" edge="1" parent="1" source="OutAfpcfDgZdODAjWb3x-118">
          <mxGeometry width="50" height="50" relative="1" as="geometry">
            <mxPoint x="430" y="260" as="sourcePoint" />
            <mxPoint x="480" y="210" as="targetPoint" />
          </mxGeometry>
        </mxCell>
        <mxCell id="OutAfpcfDgZdODAjWb3x-122" value="else" style="edgeLabel;html=1;align=center;verticalAlign=middle;resizable=0;points=[];" vertex="1" connectable="0" parent="OutAfpcfDgZdODAjWb3x-119">
          <mxGeometry x="0.0143" y="1" relative="1" as="geometry">
            <mxPoint y="-9" as="offset" />
          </mxGeometry>
        </mxCell>
        <mxCell id="OutAfpcfDgZdODAjWb3x-120" value="" style="endArrow=none;html=1;rounded=0;" edge="1" parent="1">
          <mxGeometry width="50" height="50" relative="1" as="geometry">
            <mxPoint x="290" y="210" as="sourcePoint" />
            <mxPoint x="380" y="209.76" as="targetPoint" />
          </mxGeometry>
        </mxCell>
        <mxCell id="OutAfpcfDgZdODAjWb3x-121" value="[x &amp;lt; 0 or x &amp;gt; 2]" style="edgeLabel;html=1;align=center;verticalAlign=middle;resizable=0;points=[];" vertex="1" connectable="0" parent="OutAfpcfDgZdODAjWb3x-120">
          <mxGeometry x="0.1571" y="1" relative="1" as="geometry">
            <mxPoint x="-15" y="-9" as="offset" />
          </mxGeometry>
        </mxCell>
        <mxCell id="OutAfpcfDgZdODAjWb3x-124" value="Вывод &quot;х не подходит по условию&quot;" style="rounded=1;whiteSpace=wrap;html=1;arcSize=50;" vertex="1" parent="1">
          <mxGeometry x="240" y="230" width="100" height="40" as="geometry" />
        </mxCell>
        <mxCell id="OutAfpcfDgZdODAjWb3x-125" value="" style="endArrow=classic;html=1;rounded=0;entryX=0.5;entryY=0;entryDx=0;entryDy=0;" edge="1" parent="1" target="OutAfpcfDgZdODAjWb3x-124">
          <mxGeometry width="50" height="50" relative="1" as="geometry">
            <mxPoint x="290" y="210" as="sourcePoint" />
            <mxPoint x="480" y="210" as="targetPoint" />
          </mxGeometry>
        </mxCell>
        <mxCell id="OutAfpcfDgZdODAjWb3x-133" style="edgeStyle=orthogonalEdgeStyle;rounded=0;orthogonalLoop=1;jettySize=auto;html=1;entryX=0.5;entryY=0;entryDx=0;entryDy=0;" edge="1" parent="1" source="OutAfpcfDgZdODAjWb3x-126" target="OutAfpcfDgZdODAjWb3x-130">
          <mxGeometry relative="1" as="geometry" />
        </mxCell>
        <mxCell id="OutAfpcfDgZdODAjWb3x-126" value="a := 1 - x" style="rounded=1;whiteSpace=wrap;html=1;arcSize=50;" vertex="1" parent="1">
          <mxGeometry x="430" y="230" width="100" height="30" as="geometry" />
        </mxCell>
        <mxCell id="OutAfpcfDgZdODAjWb3x-127" value="первый член ряда" style="shape=note;whiteSpace=wrap;html=1;backgroundOutline=1;darkOpacity=0.05;" vertex="1" parent="1">
          <mxGeometry x="560" y="230" width="190" height="30" as="geometry" />
        </mxCell>
        <mxCell id="OutAfpcfDgZdODAjWb3x-128" value="" style="endArrow=none;dashed=1;html=1;rounded=0;entryX=0;entryY=0.5;entryDx=0;entryDy=0;entryPerimeter=0;exitX=1;exitY=0.5;exitDx=0;exitDy=0;" edge="1" parent="1" source="OutAfpcfDgZdODAjWb3x-126" target="OutAfpcfDgZdODAjWb3x-127">
          <mxGeometry width="50" height="50" relative="1" as="geometry">
            <mxPoint x="430" y="260" as="sourcePoint" />
            <mxPoint x="480" y="210" as="targetPoint" />
          </mxGeometry>
        </mxCell>
        <mxCell id="OutAfpcfDgZdODAjWb3x-129" value="" style="endArrow=classic;html=1;rounded=0;entryX=0.5;entryY=0;entryDx=0;entryDy=0;" edge="1" parent="1" target="OutAfpcfDgZdODAjWb3x-126">
          <mxGeometry width="50" height="50" relative="1" as="geometry">
            <mxPoint x="480" y="210" as="sourcePoint" />
            <mxPoint x="460" y="310" as="targetPoint" />
          </mxGeometry>
        </mxCell>
        <mxCell id="OutAfpcfDgZdODAjWb3x-137" style="edgeStyle=orthogonalEdgeStyle;rounded=0;orthogonalLoop=1;jettySize=auto;html=1;entryX=0.5;entryY=0;entryDx=0;entryDy=0;" edge="1" parent="1" source="OutAfpcfDgZdODAjWb3x-130" target="OutAfpcfDgZdODAjWb3x-134">
          <mxGeometry relative="1" as="geometry" />
        </mxCell>
        <mxCell id="OutAfpcfDgZdODAjWb3x-130" value="sum_row := a" style="rounded=1;whiteSpace=wrap;html=1;arcSize=50;" vertex="1" parent="1">
          <mxGeometry x="430" y="280" width="100" height="30" as="geometry" />
        </mxCell>
        <mxCell id="OutAfpcfDgZdODAjWb3x-131" value="начальное значение суммы ряда" style="shape=note;whiteSpace=wrap;html=1;backgroundOutline=1;darkOpacity=0.05;" vertex="1" parent="1">
          <mxGeometry x="560" y="280" width="250" height="30" as="geometry" />
        </mxCell>
        <mxCell id="OutAfpcfDgZdODAjWb3x-132" value="" style="endArrow=none;dashed=1;html=1;rounded=0;exitX=1;exitY=0.5;exitDx=0;exitDy=0;entryX=0;entryY=0.5;entryDx=0;entryDy=0;entryPerimeter=0;" edge="1" parent="1" source="OutAfpcfDgZdODAjWb3x-130" target="OutAfpcfDgZdODAjWb3x-131">
          <mxGeometry width="50" height="50" relative="1" as="geometry">
            <mxPoint x="670" y="260" as="sourcePoint" />
            <mxPoint x="720" y="210" as="targetPoint" />
          </mxGeometry>
        </mxCell>
        <mxCell id="OutAfpcfDgZdODAjWb3x-140" style="edgeStyle=orthogonalEdgeStyle;rounded=0;orthogonalLoop=1;jettySize=auto;html=1;entryX=0.5;entryY=0;entryDx=0;entryDy=0;" edge="1" parent="1" source="OutAfpcfDgZdODAjWb3x-134" target="OutAfpcfDgZdODAjWb3x-138">
          <mxGeometry relative="1" as="geometry" />
        </mxCell>
        <mxCell id="OutAfpcfDgZdODAjWb3x-134" value="k := 1" style="rounded=1;whiteSpace=wrap;html=1;arcSize=50;" vertex="1" parent="1">
          <mxGeometry x="430" y="330" width="100" height="30" as="geometry" />
        </mxCell>
        <mxCell id="OutAfpcfDgZdODAjWb3x-135" value="начальное значение счетчика" style="shape=note;whiteSpace=wrap;html=1;backgroundOutline=1;darkOpacity=0.05;" vertex="1" parent="1">
          <mxGeometry x="560" y="330" width="230" height="30" as="geometry" />
        </mxCell>
        <mxCell id="OutAfpcfDgZdODAjWb3x-136" value="" style="endArrow=none;dashed=1;html=1;rounded=0;exitX=1;exitY=0.5;exitDx=0;exitDy=0;entryX=0;entryY=0.5;entryDx=0;entryDy=0;entryPerimeter=0;" edge="1" parent="1" source="OutAfpcfDgZdODAjWb3x-134" target="OutAfpcfDgZdODAjWb3x-135">
          <mxGeometry width="50" height="50" relative="1" as="geometry">
            <mxPoint x="590" y="310" as="sourcePoint" />
            <mxPoint x="640" y="260" as="targetPoint" />
          </mxGeometry>
        </mxCell>
        <mxCell id="OutAfpcfDgZdODAjWb3x-141" style="edgeStyle=orthogonalEdgeStyle;rounded=0;orthogonalLoop=1;jettySize=auto;html=1;entryX=0.5;entryY=0;entryDx=0;entryDy=0;" edge="1" parent="1" source="OutAfpcfDgZdODAjWb3x-138" target="OutAfpcfDgZdODAjWb3x-139">
          <mxGeometry relative="1" as="geometry" />
        </mxCell>
        <mxCell id="OutAfpcfDgZdODAjWb3x-138" value="" style="rhombus;whiteSpace=wrap;html=1;" vertex="1" parent="1">
          <mxGeometry x="460" y="380" width="40" height="40" as="geometry" />
        </mxCell>
        <mxCell id="OutAfpcfDgZdODAjWb3x-139" value="" style="rhombus;whiteSpace=wrap;html=1;" vertex="1" parent="1">
          <mxGeometry x="460" y="440" width="40" height="40" as="geometry" />
        </mxCell>
        <mxCell id="OutAfpcfDgZdODAjWb3x-142" value="" style="endArrow=none;html=1;rounded=0;entryX=0;entryY=0.5;entryDx=0;entryDy=0;" edge="1" parent="1" target="OutAfpcfDgZdODAjWb3x-139">
          <mxGeometry width="50" height="50" relative="1" as="geometry">
            <mxPoint x="400" y="460" as="sourcePoint" />
            <mxPoint x="540" y="450" as="targetPoint" />
          </mxGeometry>
        </mxCell>
        <mxCell id="OutAfpcfDgZdODAjWb3x-143" value="[|a| &amp;gt; EPS]" style="edgeLabel;html=1;align=center;verticalAlign=middle;resizable=0;points=[];" vertex="1" connectable="0" parent="OutAfpcfDgZdODAjWb3x-142">
          <mxGeometry x="-0.5032" relative="1" as="geometry">
            <mxPoint x="5" y="-10" as="offset" />
          </mxGeometry>
        </mxCell>
        <mxCell id="OutAfpcfDgZdODAjWb3x-144" value="" style="endArrow=none;html=1;rounded=0;entryX=0;entryY=0.5;entryDx=0;entryDy=0;" edge="1" parent="1">
          <mxGeometry width="50" height="50" relative="1" as="geometry">
            <mxPoint x="500" y="459.76" as="sourcePoint" />
            <mxPoint x="560" y="459.76" as="targetPoint" />
          </mxGeometry>
        </mxCell>
        <mxCell id="OutAfpcfDgZdODAjWb3x-145" value="else" style="edgeLabel;html=1;align=center;verticalAlign=middle;resizable=0;points=[];" vertex="1" connectable="0" parent="OutAfpcfDgZdODAjWb3x-144">
          <mxGeometry x="-0.5032" relative="1" as="geometry">
            <mxPoint x="5" y="-10" as="offset" />
          </mxGeometry>
        </mxCell>
        <mxCell id="OutAfpcfDgZdODAjWb3x-146" value="Вывод sum_row" style="rounded=1;whiteSpace=wrap;html=1;arcSize=50;" vertex="1" parent="1">
          <mxGeometry x="510" y="480" width="100" height="30" as="geometry" />
        </mxCell>
        <mxCell id="OutAfpcfDgZdODAjWb3x-147" value="" style="endArrow=classic;html=1;rounded=0;entryX=0.5;entryY=0;entryDx=0;entryDy=0;" edge="1" parent="1" target="OutAfpcfDgZdODAjWb3x-146">
          <mxGeometry width="50" height="50" relative="1" as="geometry">
            <mxPoint x="560" y="460" as="sourcePoint" />
            <mxPoint x="540" y="420" as="targetPoint" />
          </mxGeometry>
        </mxCell>
        <mxCell id="OutAfpcfDgZdODAjWb3x-151" style="edgeStyle=orthogonalEdgeStyle;rounded=0;orthogonalLoop=1;jettySize=auto;html=1;entryX=0.5;entryY=0;entryDx=0;entryDy=0;" edge="1" parent="1" source="OutAfpcfDgZdODAjWb3x-148" target="OutAfpcfDgZdODAjWb3x-150">
          <mxGeometry relative="1" as="geometry" />
        </mxCell>
        <mxCell id="OutAfpcfDgZdODAjWb3x-148" value="a *= ((1 - x) * (k**2)) / ((k + 1)**2)" style="rounded=1;whiteSpace=wrap;html=1;arcSize=50;" vertex="1" parent="1">
          <mxGeometry x="350" y="480" width="100" height="40" as="geometry" />
        </mxCell>
        <mxCell id="OutAfpcfDgZdODAjWb3x-149" value="" style="endArrow=classic;html=1;rounded=0;entryX=0.5;entryY=0;entryDx=0;entryDy=0;" edge="1" parent="1" target="OutAfpcfDgZdODAjWb3x-148">
          <mxGeometry width="50" height="50" relative="1" as="geometry">
            <mxPoint x="400" y="460" as="sourcePoint" />
            <mxPoint x="540" y="420" as="targetPoint" />
          </mxGeometry>
        </mxCell>
        <mxCell id="OutAfpcfDgZdODAjWb3x-153" style="edgeStyle=orthogonalEdgeStyle;rounded=0;orthogonalLoop=1;jettySize=auto;html=1;entryX=0.5;entryY=0;entryDx=0;entryDy=0;" edge="1" parent="1" source="OutAfpcfDgZdODAjWb3x-150" target="OutAfpcfDgZdODAjWb3x-152">
          <mxGeometry relative="1" as="geometry" />
        </mxCell>
        <mxCell id="OutAfpcfDgZdODAjWb3x-150" value="sum_row +=a" style="rounded=1;whiteSpace=wrap;html=1;arcSize=50;" vertex="1" parent="1">
          <mxGeometry x="350" y="540" width="100" height="30" as="geometry" />
        </mxCell>
        <mxCell id="OutAfpcfDgZdODAjWb3x-152" value="k += 1" style="rounded=1;whiteSpace=wrap;html=1;arcSize=50;" vertex="1" parent="1">
          <mxGeometry x="350" y="590" width="100" height="30" as="geometry" />
        </mxCell>
        <mxCell id="OutAfpcfDgZdODAjWb3x-154" value="" style="endArrow=none;html=1;rounded=0;exitX=0.5;exitY=1;exitDx=0;exitDy=0;" edge="1" parent="1" source="OutAfpcfDgZdODAjWb3x-152">
          <mxGeometry width="50" height="50" relative="1" as="geometry">
            <mxPoint x="490" y="610" as="sourcePoint" />
            <mxPoint x="400" y="640" as="targetPoint" />
          </mxGeometry>
        </mxCell>
        <mxCell id="OutAfpcfDgZdODAjWb3x-155" value="" style="endArrow=none;html=1;rounded=0;" edge="1" parent="1">
          <mxGeometry width="50" height="50" relative="1" as="geometry">
            <mxPoint x="400" y="640" as="sourcePoint" />
            <mxPoint x="330" y="640" as="targetPoint" />
          </mxGeometry>
        </mxCell>
        <mxCell id="OutAfpcfDgZdODAjWb3x-156" value="" style="endArrow=none;html=1;rounded=0;" edge="1" parent="1">
          <mxGeometry width="50" height="50" relative="1" as="geometry">
            <mxPoint x="330" y="640" as="sourcePoint" />
            <mxPoint x="330" y="400" as="targetPoint" />
          </mxGeometry>
        </mxCell>
        <mxCell id="OutAfpcfDgZdODAjWb3x-157" value="" style="endArrow=classic;html=1;rounded=0;" edge="1" parent="1">
          <mxGeometry width="50" height="50" relative="1" as="geometry">
            <mxPoint x="330" y="400" as="sourcePoint" />
            <mxPoint x="460" y="400" as="targetPoint" />
          </mxGeometry>
        </mxCell>
        <mxCell id="OutAfpcfDgZdODAjWb3x-161" value="" style="endArrow=none;html=1;rounded=0;" edge="1" parent="1">
          <mxGeometry width="50" height="50" relative="1" as="geometry">
            <mxPoint x="290" y="660" as="sourcePoint" />
            <mxPoint x="560" y="660" as="targetPoint" />
          </mxGeometry>
        </mxCell>
        <mxCell id="OutAfpcfDgZdODAjWb3x-162" value="" style="endArrow=none;html=1;rounded=0;entryX=0.5;entryY=1;entryDx=0;entryDy=0;" edge="1" parent="1" target="OutAfpcfDgZdODAjWb3x-146">
          <mxGeometry width="50" height="50" relative="1" as="geometry">
            <mxPoint x="560" y="660" as="sourcePoint" />
            <mxPoint x="500" y="490" as="targetPoint" />
          </mxGeometry>
        </mxCell>
        <mxCell id="OutAfpcfDgZdODAjWb3x-165" value="" style="endArrow=classic;html=1;rounded=0;entryX=0.5;entryY=0;entryDx=0;entryDy=0;" edge="1" parent="1" target="c2hw_XhxiZxsvKRolTbk-35">
          <mxGeometry width="50" height="50" relative="1" as="geometry">
            <mxPoint x="400" y="660" as="sourcePoint" />
            <mxPoint x="400" y="670" as="targetPoint" />
          </mxGeometry>
        </mxCell>
        <mxCell id="OutAfpcfDgZdODAjWb3x-166" value="" style="endArrow=none;html=1;rounded=0;entryX=0.5;entryY=1;entryDx=0;entryDy=0;" edge="1" parent="1" target="OutAfpcfDgZdODAjWb3x-124">
          <mxGeometry width="50" height="50" relative="1" as="geometry">
            <mxPoint x="290" y="660" as="sourcePoint" />
            <mxPoint x="290" y="370" as="targetPoint" />
          </mxGeometry>
        </mxCell>
      </root>
    </mxGraphModel>
  </diagram>
</mxfile>
